# xmcd
#
# Track frame offsets:
#	150
#	16590
#	35112
#	51125
#	68347
#	86202
#	99790
#	114680
#	132700
#	152780
#	166402
#	180005
#	195730
#	212395
#
# Disc length: 3048 seconds
#
# Revision: 29
# Processed by: cddbd v1.5.2PL0 Copyright (c) Steve Scherf et al.
# Submitted via: EZCDAudioConverter 2.4.0.1
#
DISCID=af0be60e
DTITLE=Chitãozinho and Xororó - Clássicos Sertanejos
DYEAR=1996
DGENRE=Sertanejo
TTITLE0=Chitãozinho and Xororó Feat. Simone - Luar Do Sertão
TTITLE1=Chitãozinho and Xororó Feat. Leandro and Leonardo - Colcha De Retalhos
TTITLE2=Chitãozinho and Xororó - É Disso Que O Velho Gosta
TTITLE3=Chitãozinho and Xororó Feat. Ney Matogrosso - Asa Branca
TTITLE4=Chitãozinho and Xororó Feat. Sérgio Reis - Chitãozinho and Xororó
TTITLE5=Chitãozinho and Xororó Feat. João Paulo and Daniel - Saudade De Minha Terr
TTITLE5=a
TTITLE6=Chitãozinho and Xororó - Caboclo Na Cidade
TTITLE7=Chitãozinho and Xororó Feat. Chrystian and Ralf - Tristeza Do Jeca
TTITLE8=Chitãozinho and Xororó Feat. Fagner - Cabocla Tereza
TTITLE9=Chitãozinho and Xororó Feat. Zezé Di Camargo and Luciano - Pombinha Branca
TTITLE10=Chitãozinho and Xororó - Cavalo Enxuto
TTITLE11=Chitãozinho and Xororó Feat. Almir Sater - Amor Distante
TTITLE12=Chitãozinho and Xororó Feat. Léo Canhoto and Robertinho - Vou Tomá Um Pin
TTITLE12=gão
TTITLE13=Chitãozinho and Xororó - Coração Sertanejo
EXTD=
EXTT0=
EXTT1=
EXTT2=
EXTT3=
EXTT4=
EXTT5=
EXTT6=
EXTT7=
EXTT8=
EXTT9=
EXTT10=
EXTT11=
EXTT12=
EXTT13=
PLAYORDER=
